<?xml version="1.0" ?><!-- Uploaded to: SVG Repo, www.svgrepo.com, Generator: SVG Repo Mixer Tools -->
<svg fill="#000000" width="800px" height="800px" viewBox="0 0 32 32" id="OBJECT" xmlns="http://www.w3.org/2000/svg"><title/><path d="M21.67,5A6,6,0,0,0,10.33,5a6,6,0,0,0-3.8,2H25.47A6,6,0,0,0,21.67,5Z"/><path d="M15.45,21.73a2.66,2.66,0,0,0-.65,2.78,2.72,2.72,0,0,0,3.43-3.43A2.66,2.66,0,0,0,15.45,21.73Z"/><path d="M1.75,15h28.5c-.08-.26-.14-.53-.24-.79A3,3,0,0,0,31,12a3,3,0,0,0-3-3H4a3,3,0,0,0-3,3,3,3,0,0,0,1,2.21C1.89,14.47,1.83,14.74,1.75,15Z"/><path d="M1.28,17A17.56,17.56,0,0,0,3.13,28.4,5,5,0,0,0,7.5,31h17a5,5,0,0,0,4.37-2.6A17.56,17.56,0,0,0,30.72,17ZM19,25.27a4.62,4.62,0,0,1-4.71,1.17l-.95.95A1,1,0,0,1,11.92,26l.94-.94a4.71,4.71,0,0,1,6.58-5.6,1,1,0,0,1,.44.43A4.65,4.65,0,0,1,19,25.27Z"/></svg>