<?xml version="1.0" ?>
<!DOCTYPE svg  PUBLIC '-//W3C//DTD SVG 1.1//EN'  'http://www.w3.org/Graphics/SVG/1.1/DTD/svg11.dtd'>
<!-- Uploaded to: SVG Repo, www.svgrepo.com, Generator: SVG Repo Mixer Tools -->
<svg width="800px" height="800px" viewBox="0 0 6.82666 6.82666" style="shape-rendering:geometricPrecision; text-rendering:geometricPrecision; image-rendering:optimizeQuality; fill-rule:evenodd; clip-rule:evenodd" xml:space="preserve" xmlns="http://www.w3.org/2000/svg" xmlns:xlink="http://www.w3.org/1999/xlink">
<defs>
<style type="text/css">
   <![CDATA[
    .str0 {stroke:#373435;stroke-width:0.00694488;stroke-linecap:round;stroke-linejoin:round}
    .fil5 {fill:none}
    .fil4 {fill:#81868C}
    .fil1 {fill:#C3AE7E}
    .fil3 {fill:#EDEAE3}
    .fil2 {fill:#FF3D00}
    .fil0 {fill:black;fill-rule:nonzero}
   ]]>
  </style>
</defs>
<g id="Layer_x0020_1">
<path class="fil0" d="M3.31333 3.02516l1.3 0 1.30666 0c0.0294528,0 0.0533346,0.0238819 0.0533346,0.0533346l0 2.71484c0,0.0294528 -0.0238819,0.0533346 -0.0533346,0.0533346l-5.01333 0c-0.0294528,0 -0.0533346,-0.0238819 -0.0533346,-0.0533346l0 -2.71484c0,-0.0294528 0.0238819,-0.0533346 0.0533346,-0.0533346l1.30667 0 1.1 0zm1.3 0.106669l-1.3 0 -1.1 0 -1.25333 0 0 2.60817 4.90666 0 0 -2.60817 -1.25332 0z"/>
<path class="fil0" d="M4.42667 5.74l0 -1.7015 0 -0.0219803c0,-0.00225591 -0.000141732,-0.00447638 -0.000413386,-0.00665748 -0.00751575,-0.267409 -0.119886,-0.509748 -0.297213,-0.687075 -0.0769843,-0.0769843 -0.166232,-0.141717 -0.264453,-0.190957l-0.45126 0c0.24928,0 0.475941,0.10202 0.640295,0.266374 0.164354,0.164354 0.266374,0.39102 0.266374,0.640295l0 1.7015 0.106669 0zm-1.4646 -2.60817c-0.0982205,0.0492402 -0.187469,0.113972 -0.264453,0.190957 -0.177327,0.177327 -0.289697,0.419665 -0.297213,0.687075 -0.000271654,0.0021811 -0.000413386,0.00440157 -0.000413386,0.00665748l0 0.0219803 0 1.7015 0.106669 0 0 -1.7015c0,-0.249276 0.10202,-0.475941 0.266374,-0.640295 0.164354,-0.164354 0.391016,-0.266374 0.640295,-0.266374l-0.0999961 0 -0.351264 0z"/>
<path class="fil0" d="M1.41333 3.71591l0.533335 0c0.0294528,0 0.0533346,0.0238819 0.0533346,0.0533346l0 0.533335c0,0.0294528 -0.0238819,0.0533346 -0.0533346,0.0533346l-0.533335 0c-0.0294528,0 -0.0533346,-0.0238819 -0.0533346,-0.0533346l0 -0.533335c0,-0.0294528 0.0238819,-0.0533346 0.0533346,-0.0533346zm0.48 0.106669l-0.426665 0 0 0.426665 0.426665 0 0 -0.426665z"/>
<path class="fil0" d="M1.41333 4.51591l0.533335 0c0.0294528,0 0.0533346,0.0238819 0.0533346,0.0533346l0 0.533335c0,0.0294528 -0.0238819,0.0533346 -0.0533346,0.0533346l-0.533335 0c-0.0294528,0 -0.0533346,-0.0238819 -0.0533346,-0.0533346l0 -0.533335c0,-0.0294528 0.0238819,-0.0533346 0.0533346,-0.0533346zm0.48 0.106669l-0.426665 0 0 0.426665 0.426665 0 0 -0.426665z"/>
<path class="fil0" d="M4.88 3.71591l0.533335 0c0.0294528,0 0.0533346,0.0238819 0.0533346,0.0533346l0 0.533335c0,0.0294528 -0.0238819,0.0533346 -0.0533346,0.0533346l-0.533335 0c-0.0294528,0 -0.0533346,-0.0238819 -0.0533346,-0.0533346l0 -0.533335c0,-0.0294528 0.0238819,-0.0533346 0.0533346,-0.0533346zm0.48 0.106669l-0.426665 0 0 0.426665 0.426665 0 0 -0.426665z"/>
<path class="fil0" d="M4.88 4.51591l0.533335 0c0.0294528,0 0.0533346,0.0238819 0.0533346,0.0533346l0 0.533335c0,0.0294528 -0.0238819,0.0533346 -0.0533346,0.0533346l-0.533335 0c-0.0294528,0 -0.0533346,-0.0238819 -0.0533346,-0.0533346l0 -0.533335c0,-0.0294528 0.0238819,-0.0533346 0.0533346,-0.0533346zm0.48 0.106669l-0.426665 0 0 0.426665 0.426665 0 0 -0.426665z"/>
<path class="fil0" d="M2.24413 3.02516c0.0248701,-0.292169 0.156843,-0.55385 0.35652,-0.74561 0.210756,-0.202402 0.49713,-0.326811 0.812685,-0.326811 0.31574,0 0.602264,0.124559 0.813067,0.327177 0.199496,0.191756 0.331335,0.453295 0.356157,0.745244l0.0307835 0 0.075874 0c-0.0251772,-0.322252 -0.169563,-0.610929 -0.389067,-0.821913 -0.230134,-0.221197 -0.542661,-0.357177 -0.886815,-0.357177 -0.343953,0 -0.656331,0.135831 -0.886433,0.356811 -0.21976,0.211047 -0.364315,0.499882 -0.389469,0.82228l0.0759055 0 0.0307913 0z"/>
<g id="_171898112">
<path class="fil0" d="M3.46669 1.03333c0,-0.0294528 -0.0238819,-0.0533346 -0.0533346,-0.0533346 -0.0294528,0 -0.0533346,0.0238819 -0.0533346,0.0533346l0 0.866067c0,0.0294528 0.0238819,0.0533346 0.0533346,0.0533346 0.0294528,0 0.0533346,-0.0238819 0.0533346,-0.0533346l0 -0.866067z" id="_171898208"/>
<path class="fil0" d="M3.43312 0.983961c-0.0272677,-0.0109291 -0.0582362,0.00231496 -0.0691654,0.0295827 -0.0109291,0.0272677 0.00231496,0.0582362 0.0295827,0.0691654l0.409902 0.163961 -0.409902 0.163961c-0.0272677,0.0109291 -0.0405118,0.0418976 -0.0295827,0.0691654 0.0109291,0.0272677 0.0418976,0.0405118 0.0691654,0.0295827l0.529685 -0.211874c0.0146693,-0.00466929 0.0272165,-0.0156181 0.033378,-0.0310276 0.010937,-0.0273465 -0.00236614,-0.0583898 -0.0297126,-0.0693268l-5.11811e-005 0.000129921 -0.533299 -0.213319z" id="_171898160"/>
</g>
<path class="fil1 str0" d="M5.86666 3.13183l-1.25332 0 -0.748748 0c0.0982205,0.0492402 0.187469,0.113972 0.264453,0.190957 0.177327,0.177327 0.289697,0.419665 0.297213,0.687075 0.000271654,0.0021811 0.000413386,0.00440157 0.000413386,0.00665748l0 0.0219803 0 1.7015 1.43999 0 0 -2.60817zm-0.986661 0.584083l0.533335 0c0.0294528,0 0.0533346,0.0238819 0.0533346,0.0533346l0 0.533335c0,0.0294528 -0.0238819,0.0533346 -0.0533346,0.0533346l-0.533335 0c-0.0294528,0 -0.0533346,-0.0238819 -0.0533346,-0.0533346l0 -0.533335c0,-0.0294528 0.0238819,-0.0533346 0.0533346,-0.0533346zm0 0.799996l0.533335 0c0.0294528,0 0.0533346,0.0238819 0.0533346,0.0533346l0 0.533335c0,0.0294528 -0.0238819,0.0533346 -0.0533346,0.0533346l-0.533335 0c-0.0294528,0 -0.0533346,-0.0238819 -0.0533346,-0.0533346l0 -0.533335c0,-0.0294528 0.0238819,-0.0533346 0.0533346,-0.0533346z"/>
<path class="fil1 str0" d="M2.40041 4.00986c0.00751575,-0.267409 0.119886,-0.509748 0.297213,-0.687075 0.0769843,-0.0769843 0.166232,-0.141717 0.264453,-0.190957l-0.748736 0 -1.25333 0 0 2.60817 1.43999 0 0 -1.7015 0 -0.0219803c0,-0.00225591 0.000141732,-0.00447638 0.000413386,-0.00665748zm-0.400409 -0.240614l0 0.533335c0,0.0294528 -0.0238819,0.0533346 -0.0533346,0.0533346l-0.533335 0c-0.0294528,0 -0.0533346,-0.0238819 -0.0533346,-0.0533346l0 -0.533335c0,-0.0294528 0.0238819,-0.0533346 0.0533346,-0.0533346l0.533335 0c0.0294528,0 0.0533346,0.0238819 0.0533346,0.0533346zm-0.586669 0.746661l0.533335 0c0.0294528,0 0.0533346,0.0238819 0.0533346,0.0533346l0 0.533335c0,0.0294528 -0.0238819,0.0533346 -0.0533346,0.0533346l-0.533335 0c-0.0294528,0 -0.0533346,-0.0238819 -0.0533346,-0.0533346l0 -0.533335c0,-0.0294528 0.0238819,-0.0533346 0.0533346,-0.0533346z"/>
<path class="fil1 str0" d="M3.31333 3.02516l1.26922 0c-0.0248228,-0.291949 -0.156661,-0.553488 -0.356157,-0.745244 -0.210803,-0.202618 -0.497327,-0.327177 -0.813067,-0.327177 -0.315555,0 -0.601929,0.124409 -0.812685,0.326811 -0.199677,0.19176 -0.33165,0.453441 -0.35652,0.74561l1.06921 0z"/>
<polygon class="fil2 str0" points="3.46669,1.38137 3.80344,1.24667 3.46669,1.11197 "/>
<polygon class="fil3 str0" points="4.93333,3.82258 4.93333,4.24924 5.36,4.24924 5.36,3.82258 "/>
<polygon class="fil3 str0" points="5.36,4.62257 4.93333,4.62257 4.93333,5.04924 5.36,5.04924 "/>
<polygon class="fil3 str0" points="1.89333,4.24924 1.89333,3.82258 1.46666,3.82258 1.46666,4.24924 "/>
<polygon class="fil3 str0" points="1.89333,4.62257 1.46666,4.62257 1.46666,5.04924 1.89333,5.04924 "/>
<path class="fil4 str0" d="M2.50666 4.0385l0 1.7015 1.81334 0 0 -1.7015c0,-0.249276 -0.10202,-0.475941 -0.266374,-0.640295 -0.164354,-0.164354 -0.391016,-0.266374 -0.640295,-0.266374 -0.24928,0 -0.475941,0.10202 -0.640295,0.266374 -0.164354,0.164354 -0.266374,0.39102 -0.266374,0.640295z"/>
</g>
<rect class="fil5" height="6.82666" width="6.82666"/>
</svg>