<?xml version="1.0" ?>
<!-- Uploaded to: SVG Repo, www.svgrepo.com, Generator: SVG Repo Mixer Tools -->
<svg width="800px" height="800px" viewBox="0 0 512 512" baseProfile="tiny" overflow="visible" version="1.1" xml:space="preserve" xmlns="http://www.w3.org/2000/svg" xmlns:xlink="http://www.w3.org/1999/xlink">
<g id="Layer_1"/>
<g id="Layer_2"/>
<g id="Layer_3"/>
<g id="Layer_4"/>
<g id="Layer_5"/>
<g id="Layer_6"/>
<g id="Layer_7"/>
<g id="Layer_8"/>
<g id="Layer_9"/>
<g id="Layer_10"/>
<g id="Layer_11"/>
<g id="Layer_12"/>
<g id="Layer_13"/>
<g id="Layer_14"/>
<g id="Layer_15"/>
<g id="Layer_16"/>
<g id="Layer_17"/>
<g id="Layer_18"/>
<g id="Layer_19"/>
<g id="Layer_20"/>
<g id="Layer_21"/>
<g id="Layer_22"/>
<g id="Layer_23"/>
<g id="Layer_24"/>
<g id="Layer_25"/>
<g id="Layer_26"/>
<g id="Layer_27"/>
<g id="Layer_28"/>
<g id="Layer_29"/>
<g id="Layer_30"/>
<g id="Layer_31"/>
<g id="Layer_32"/>
<g id="Layer_33"/>
<g id="Layer_34"/>
<g id="Layer_35"/>
<g id="Layer_36"/>
<g id="Layer_37"/>
<g id="Layer_38"/>
<g id="Layer_39"/>
<g id="Layer_40"/>
<g id="Layer_41"/>
<g id="Layer_42"/>
<g id="Layer_43"/>
<g id="Layer_44"/>
<g id="Layer_45"/>
<g id="Layer_46"/>
<g id="Layer_47"/>
<g id="Layer_48"/>
<g id="Layer_49"/>
<g id="Layer_50">
<g>
<ellipse cx="311.015" cy="267.849" fill="#FF9000" rx="101.172" ry="146.569"/>
<ellipse cx="209.843" cy="267.849" fill="#FF9000" rx="101.172" ry="146.569"/>
<path d="M311.015,121.279c-3.275,0-6.512,0.234-9.707,0.675c51.321,7.079,91.464,69.691,91.464,145.895    s-40.144,138.816-91.464,145.895c3.195,0.441,6.432,0.675,9.707,0.675c55.875,0,101.172-65.621,101.172-146.569    S366.89,121.279,311.015,121.279z" fill="#F88000"/>
<path d="M209.843,121.279c-3.275,0-6.512,0.234-9.707,0.675c51.321,7.079,91.464,69.691,91.464,145.895    s-40.144,138.816-91.464,145.895c3.195,0.441,6.432,0.675,9.707,0.675c55.875,0,101.172-65.621,101.172-146.569    S265.718,121.279,209.843,121.279z" fill="#F88000"/>
<path d="M315.084,61.651h-40.762c-1.73,0-3.331,0.892-4.248,2.359c-8.091,12.95-17.021,29.703-24.478,50.113    c-7.078,19.372-11.022,37.092-13.258,51.799c-0.46,3.029,1.883,5.751,4.946,5.751h42.541c2.534,0,4.672-1.891,4.963-4.408    c1.727-14.917,5.369-33.822,13.125-54.681c6.465-17.388,14.19-31.831,21.392-43.256C321.407,65.993,319.028,61.651,315.084,61.651    z" fill="#AF602D"/>
<path d="M315.084,61.651h-9.707c3.944,0,6.324,4.342,4.22,7.678c-7.202,11.424-14.926,25.867-21.392,43.256    c-7.756,20.859-11.398,39.765-13.125,54.681c-0.291,2.517-2.429,4.408-4.963,4.408h9.707c2.534,0,4.672-1.891,4.963-4.408    c1.727-14.917,5.369-33.822,13.125-54.681c6.465-17.388,14.19-31.831,21.392-43.256C321.407,65.993,319.028,61.651,315.084,61.651    z" fill="#A05423"/>
<ellipse cx="108.672" cy="303.779" fill="#FFBE73" rx="101.172" ry="146.569"/>
<path d="M108.672,157.21c-3.275,0-6.512,0.234-9.707,0.675c51.321,7.079,91.464,69.691,91.464,145.895    c0,76.204-40.144,138.816-91.464,145.895c3.195,0.441,6.432,0.675,9.707,0.675c55.875,0,101.172-65.621,101.172-146.569    C209.843,222.831,164.547,157.21,108.672,157.21z" fill="#FFB25A"/>
<ellipse cx="179.301" cy="303.779" fill="#FFA83F" rx="101.172" ry="146.569"/>
<path d="M179.301,157.21c-3.275,0-6.512,0.234-9.707,0.675c51.321,7.079,91.464,69.691,91.464,145.895    c0,76.204-40.144,138.816-91.464,145.895c3.195,0.441,6.432,0.675,9.707,0.675c55.876,0,101.172-65.621,101.172-146.569    C280.473,222.831,235.177,157.21,179.301,157.21z" fill="#FF9C20"/>
<ellipse cx="403.328" cy="303.779" fill="#FFBE73" rx="101.172" ry="146.569"/>
<path d="M403.328,157.21c-3.275,0-6.512,0.234-9.707,0.675c51.321,7.079,91.464,69.691,91.464,145.895    c0,76.204-40.144,138.816-91.464,145.895c3.195,0.441,6.432,0.675,9.707,0.675c55.876,0,101.172-65.621,101.172-146.569    C504.5,222.831,459.204,157.21,403.328,157.21z" fill="#FFB25A"/>
<ellipse cx="332.699" cy="303.779" fill="#FFA83F" rx="101.172" ry="146.569"/>
<path d="M332.699,157.21c-3.275,0-6.512,0.234-9.707,0.675c51.321,7.079,91.464,69.691,91.464,145.895    c0,76.204-40.144,138.816-91.464,145.895c3.195,0.441,6.432,0.675,9.707,0.675c55.875,0,101.172-65.621,101.172-146.569    C433.87,222.831,388.574,157.21,332.699,157.21z" fill="#FF9C20"/>
<ellipse cx="260.085" cy="303.779" fill="#FF9000" rx="101.172" ry="146.569"/>
<path d="M260.085,157.21c-3.275,0-6.512,0.234-9.707,0.675c51.321,7.079,91.464,69.691,91.464,145.895    c0,76.204-40.144,138.816-91.464,145.895c3.195,0.441,6.432,0.675,9.707,0.675c55.875,0,101.171-65.621,101.171-146.569    C361.256,222.831,315.96,157.21,260.085,157.21z" fill="#F88000"/>
</g>
<path d="M481.035,195.88c-20.55-29.77-48.15-46.17-77.71-46.17c-6.81,0-13.59,0.89-20.23,2.65h-0.01   c-19.83-24.93-45.26-38.58-72.08-38.58c-1.87,0-3.74,0.07-5.61,0.21c5.37-14.19,12.18-27.87,20.24-40.65   c2.44-3.86,2.59-8.74,0.39-12.73c-2.2-3.98-6.39-6.46-10.95-6.46h-40.76c-4.34,0-8.3,2.2-10.61,5.89   c-10.14,16.23-18.6,33.56-25.15,51.5c-0.81,2.22-1.61,4.48-2.37,6.76c-8.58-3.01-17.4-4.52-26.35-4.52   c-27.72,0-53.75,14.44-73.83,40.82c-8.89-3.25-18.06-4.89-27.34-4.89c-29.56,0-57.16,16.4-77.71,46.17   c-19.96,28.92-30.96,67.24-30.96,107.9c0,40.66,11,78.98,30.96,107.9c20.55,29.77,48.15,46.17,77.71,46.17   c12.13,0,24-2.78,35.32-8.26c11.31,5.49,23.17,8.26,35.31,8.26c14.02,0,27.58-3.67,40.39-10.91c12.81,7.24,26.37,10.91,40.39,10.91   c12.49,0,24.69-2.94,36.31-8.74c11.62,5.8,23.82,8.74,36.31,8.74c12.13,0,24-2.77,35.31-8.26c11.32,5.49,23.18,8.26,35.32,8.26   c29.56,0,57.16-16.4,77.71-46.17c19.96-28.92,30.96-67.24,30.96-107.9C511.995,263.12,500.995,224.8,481.035,195.88z    M311.005,128.78c20.77,0,40.79,10.26,57.17,29.11c-0.06,0.03-0.11,0.05-0.17,0.08c-11.31-5.49-23.18-8.26-35.31-8.26   c-12.5,0-24.7,2.94-36.32,8.75c-0.86-0.44-1.73-0.86-2.6-1.25c1.53-9.25,3.64-18.46,6.31-27.47   C303.705,129.1,307.365,128.78,311.005,128.78z M275.705,69.15h34.89c-7.82,12.93-14.44,26.64-19.72,40.83   c-1.32,3.53-2.57,7.18-3.74,10.86c-0.02,0.06-0.04,0.12-0.06,0.18c-3.23,10.17-5.79,20.6-7.65,31.11   c-12.07-3.05-24.72-3.2-36.86-0.43c1.52-7.15,3.36-14.25,5.47-21.23c0.02-0.06,0.04-0.12,0.05-0.18c1.4-4.59,2.93-9.16,4.56-13.6   C258.675,100.15,266.435,84.16,275.705,69.15z M209.835,128.78c7.43,0,14.8,1.3,21.96,3.89c-2.26,8.12-4.14,16.37-5.63,24.64   c-2.18,1-4.34,2.11-6.47,3.31c-12.81-7.24-26.38-10.91-40.4-10.91c-7.44,0-14.77,1.04-21.94,3.11   C172.785,137.19,190.935,128.78,209.835,128.78z M108.665,442.85c-51.65,0-93.67-62.39-93.67-139.07s42.02-139.07,93.67-139.07   c6.26,0,12.48,0.93,18.59,2.77c0.27,0.08,0.55,0.17,0.83,0.26c-0.21,0.15-0.41,0.31-0.61,0.46c-0.41,0.31-0.81,0.62-1.21,0.95   c-34.36,27.13-55.64,78.54-55.64,134.63c0,31.62,6.66,61.99,19.27,87.81c9.93,20.36,22.97,36.79,38.17,48.23   C121.725,441.84,115.235,442.85,108.665,442.85z M179.295,442.85c-10.9,0-21.58-2.79-31.75-8.28c-0.07-0.04-0.14-0.08-0.21-0.11   c-36.92-20.07-61.71-72.54-61.71-130.68c0-52.1,19.47-99.43,50.83-123.57c0.05-0.04,0.09-0.07,0.14-0.11   c0.03-0.03,0.07-0.05,0.1-0.08c3.42-2.6,7.01-4.94,10.65-6.92c0.07-0.03,0.14-0.07,0.21-0.11c10.16-5.49,20.84-8.28,31.74-8.28   c8.99,0,17.8,1.88,26.29,5.61c-33.25,27.25-54.18,78.03-54.18,133.46c0,37.25,9.44,73.17,26.57,101.13   c2.48,4.07,5.17,8.02,7.97,11.74c0.08,0.1,0.16,0.19,0.23,0.29c5.94,7.8,12.44,14.6,19.41,20.3   C197.095,440.97,188.285,442.85,179.295,442.85z M223.765,431.9c-0.02-0.01-0.05-0.03-0.07-0.04c-0.03-0.02-0.07-0.04-0.1-0.06   c-0.02-0.01-0.04-0.03-0.06-0.04c-9.36-5.94-17.98-14.07-25.61-24.16c-0.06-0.08-0.13-0.16-0.19-0.24c0-0.01-0.01-0.01-0.01-0.02   c-2.44-3.24-4.78-6.69-6.96-10.26c-15.71-25.64-24.36-58.78-24.36-93.3c0-55.73,22.42-105.93,57.1-127.97h0.01   c0.12-0.07,0.24-0.14,0.35-0.22c3.78-2.37,7.68-4.38,11.59-5.98c0.07-0.03,0.15-0.06,0.22-0.09c2.98-1.2,6.06-2.2,9.15-2.96   c10.18-2.5,20.81-2.45,30.97,0.12h0.01c0.05,0.02,0.1,0.03,0.16,0.04c0.04,0.02,0.09,0.04,0.14,0.05c2.25,0.57,4.52,1.29,6.75,2.13   c3.23,1.2,6.5,2.72,9.72,4.49c0.05,0.03,0.11,0.06,0.16,0.09c0.02,0.01,0.05,0.03,0.07,0.04c12.18,6.79,23.11,17.13,32.53,30.72   c0.02,0.02,0.03,0.03,0.04,0.05c0.05,0.08,0.1,0.16,0.15,0.24c9.105,13.205,16.162,28.619,20.943,45.431   c4.781,16.812,7.286,35.022,7.286,53.819c0,24.655-4.311,48.301-12.413,69.107c-4.253,10.918-9.549,21.054-15.817,30.143   c-0.05,0.08-0.1,0.16-0.15,0.24c-0.01,0.02-0.02,0.03-0.04,0.05c-1.03,1.49-2.12,3.01-3.26,4.49   c-8.69,11.42-18.55,20.25-29.3,26.25c-0.01,0.01-0.03,0.01-0.04,0.02c-0.05,0.03-0.11,0.06-0.16,0.09   c-10.4,5.76-21.33,8.68-32.5,8.68C247.495,442.85,235.275,439.16,223.765,431.9z M311.895,439.38   c7.98-6.11,15.39-13.64,22.12-22.48c1.34-1.77,2.64-3.57,3.87-5.35c0.05-0.08,0.11-0.16,0.16-0.24   c1.17-1.699,2.303-3.437,3.41-5.207c0.019-0.031,0.039-0.061,0.059-0.092c0.046-0.074,0.095-0.147,0.141-0.221   c0,0,0-0.01,0.01-0.01c0.44-0.71,0.87-1.42,1.3-2.14c0.049-0.08,0.096-0.16,0.143-0.24c0.093-0.156,0.186-0.313,0.279-0.469   c0.055-0.085,0.102-0.177,0.158-0.26c0.37-0.63,0.74-1.27,1.11-1.91c0.054-0.096,0.108-0.194,0.163-0.292   c1.334-2.346,2.61-4.744,3.838-7.183c0.21-0.417,0.419-0.834,0.626-1.253c0.644-1.307,1.277-2.623,1.89-3.955   c0.007-0.016,0.015-0.031,0.022-0.047c0.34-0.74,0.67-1.47,1-2.21c0.066-0.158,0.135-0.313,0.203-0.468   c0.565-1.286,1.115-2.583,1.653-3.89c0.004-0.011,0.009-0.021,0.014-0.032c0.06-0.13,0.11-0.26,0.16-0.39   c0.09-0.222,0.176-0.446,0.266-0.668c0.288-0.713,0.575-1.427,0.854-2.146c0.029-0.076,0.061-0.15,0.09-0.226   c0.095-0.243,0.183-0.491,0.276-0.735c0.418-1.094,0.826-2.195,1.225-3.302c0.069-0.194,0.145-0.388,0.209-0.583   c0.004-0.01,0.007-0.021,0.011-0.031c0.297-0.833,0.587-1.67,0.873-2.511c0.028-0.083,0.059-0.165,0.086-0.248   c0.07-0.18,0.13-0.36,0.18-0.54c0.001-0.004,0.003-0.009,0.004-0.013c0.308-0.919,0.608-1.842,0.903-2.77   c0.037-0.116,0.076-0.231,0.113-0.347c0.06-0.17,0.11-0.34,0.16-0.51c0.01-0.032,0.019-0.065,0.03-0.098   c0.366-1.175,0.723-2.356,1.068-3.544c0.001-0.003,0.002-0.005,0.003-0.008c0-0.001,0-0.002,0.001-0.002   c1.471-5.061,2.749-10.237,3.831-15.507c0.139-0.679,0.279-1.358,0.418-2.04c0.11-0.62,0.23-1.24,0.35-1.86   c0.07-0.41,0.15-0.82,0.22-1.23c0.023-0.135,0.046-0.271,0.07-0.406c0.436-2.466,0.831-4.951,1.182-7.453   c0.012-0.087,0.027-0.174,0.039-0.261c0.002-0.011,0.003-0.022,0.004-0.032c0.121-0.871,0.232-1.747,0.342-2.622   c0.023-0.189,0.051-0.376,0.074-0.566c0.003-0.028,0.006-0.056,0.01-0.083c0.105-0.852,0.202-1.708,0.297-2.564   c0.001-0.011,0.003-0.022,0.004-0.033c0.004-0.04,0.009-0.081,0.013-0.121c0.126-1.148,0.244-2.3,0.352-3.454   c0.005-0.048,0.01-0.096,0.014-0.144c0-0.03,0.005-0.059,0.007-0.089c0.103-1.11,0.198-2.223,0.284-3.338   c0.021-0.288,0.048-0.575,0.068-0.863c0.008-0.085,0.011-0.17,0.017-0.254c0.284-3.93,0.467-7.892,0.541-11.879   c0-0.022,0.001-0.044,0.002-0.067c0-0.003,0-0.005,0-0.008c0.024-1.302,0.037-2.607,0.038-3.914c0-0.063,0.002-0.125,0.002-0.188   c0-0.062-0.002-0.123-0.002-0.185c-0.001-1.309-0.014-2.615-0.038-3.918c0-0.002,0-0.005,0-0.007c0-0.02-0.001-0.041-0.002-0.061   c-0.074-3.99-0.257-7.955-0.542-11.888c-0.006-0.084-0.008-0.167-0.017-0.251c-0.02-0.284-0.047-0.568-0.068-0.852   c-0.142-1.831-0.299-3.657-0.485-5.473c-0.013-0.132-0.024-0.264-0.037-0.395c-0.1-0.89-0.2-1.78-0.3-2.67   c-0.011-0.087-0.022-0.171-0.032-0.258c-0.044-0.373-0.093-0.744-0.139-1.116c-0.004-0.025-0.006-0.051-0.009-0.076   c-0.08-0.66-0.16-1.31-0.25-1.97c-0.022-0.181-0.049-0.357-0.073-0.536c-0.018-0.133-0.036-0.266-0.054-0.399   c-0.025-0.181-0.048-0.364-0.074-0.544c-0.096-0.682-0.2-1.357-0.303-2.033c-0.1-0.662-0.203-1.323-0.309-1.982   c-0.128-0.809-0.258-1.617-0.397-2.42c-0.062-0.362-0.131-0.722-0.195-1.083c-0.102-0.567-0.2-1.137-0.306-1.701   c-0.018-0.104-0.041-0.204-0.06-0.307c-0.281-1.496-0.576-2.985-0.888-4.466c-0.004-0.019-0.007-0.038-0.012-0.057   c-0.16-0.75-0.32-1.5-0.49-2.24c-0.008-0.04-0.019-0.079-0.027-0.119c-1.005-4.489-2.156-8.904-3.447-13.235   c-0.125-0.425-0.248-0.852-0.375-1.276c-0.02-0.05-0.04-0.11-0.05-0.17c-0.234-0.753-0.476-1.502-0.717-2.251   c-0.343-1.072-0.696-2.138-1.057-3.199c-0.12-0.352-0.235-0.709-0.356-1.06c-0.013-0.036-0.025-0.071-0.038-0.107   c-0.035-0.102-0.072-0.203-0.108-0.305c-0.087-0.251-0.174-0.503-0.265-0.748c-0.136-0.377-0.269-0.743-0.403-1.111   c-0.194-0.537-0.387-1.075-0.586-1.608c-0.004-0.01-0.007-0.021-0.011-0.031c-0.23-0.63-0.47-1.26-0.71-1.88   c-0.1-0.25-0.19-0.5-0.29-0.75c-0.011-0.028-0.023-0.056-0.034-0.084c-0.256-0.654-0.521-1.3-0.783-1.949   c-0.159-0.392-0.312-0.789-0.473-1.177c-0.01-0.024-0.02-0.048-0.03-0.072c-0.192-0.465-0.392-0.924-0.588-1.386   c-0.241-0.569-0.48-1.142-0.722-1.703c-0.024-0.054-0.049-0.108-0.073-0.163c-0.106-0.241-0.216-0.478-0.322-0.719   c-0.171-0.384-0.339-0.77-0.515-1.149c-0.053-0.12-0.11-0.239-0.163-0.359c-0.182-0.401-0.362-0.804-0.548-1.203   c-0.05-0.109-0.099-0.218-0.149-0.327c-0.36-0.77-0.72-1.53-1.09-2.29c-0.022-0.045-0.044-0.089-0.066-0.133   c-0.054-0.111-0.109-0.22-0.163-0.331c-0.171-0.354-0.34-0.709-0.521-1.056c-0.25-0.51-0.5-1.01-0.76-1.51   c-0.008-0.015-0.015-0.029-0.023-0.044c-0.198-0.388-0.403-0.772-0.604-1.158c-0.31-0.597-0.616-1.196-0.933-1.788   c-0.53-0.98-1.07-1.96-1.62-2.93c-0.009-0.016-0.018-0.032-0.028-0.048c-0.192-0.339-0.389-0.674-0.583-1.012   c-0.294-0.526-0.594-1.049-0.9-1.56c-0.03-0.04-0.05-0.09-0.08-0.13c-0.024-0.04-0.047-0.079-0.071-0.119   c-0.147-0.248-0.296-0.493-0.444-0.74c-0.078-0.13-0.157-0.263-0.235-0.391c-0.339-0.562-0.679-1.123-1.027-1.676   c-0.511-0.822-1.032-1.635-1.557-2.443c-0.086-0.133-0.17-0.268-0.256-0.401c-0.004-0.006-0.008-0.012-0.012-0.018   c-0.6-0.917-1.208-1.825-1.825-2.724c-0.049-0.085-0.105-0.162-0.153-0.249c-7.72-11.2-16.42-20.51-25.99-27.82   c6.79-2.31,13.75-3.47,20.8-3.47c10.9,0,21.58,2.79,31.76,8.28c9.67,5.22,18.68,12.76,26.78,22.42c0,0.01,0.01,0.02,0.02,0.03   c0.03,0.04,0.05,0.07,0.08,0.1c22.26,26.65,35.03,66.09,35.03,108.24c0,58.13-24.79,110.61-61.7,130.68   c-0.07,0.03-0.14,0.07-0.21,0.11c-0.08,0.04-0.15,0.08-0.23,0.12c-10.11,5.41-20.71,8.16-31.53,8.16   C325.645,442.85,318.685,441.69,311.895,439.38z M403.325,442.85c-6.57,0-13.06-1.01-19.4-3.03c15.2-11.44,28.24-27.87,38.17-48.23   c12.61-25.83,19.27-56.19,19.27-87.81c0-45.22-13.8-87.82-37.9-117.1l-0.01-0.01c-0.22-0.28-0.46-0.56-0.69-0.84l-15.14-15.16   c-0.56-0.46-1.12-0.91-1.68-1.36c-0.02-0.02-0.04-0.03-0.06-0.05c-0.64-0.51-1.29-1.01-1.94-1.5l-0.03-0.03   c2.81-0.89,5.67-1.58,8.54-2.08c3.6-0.62,7.23-0.94,10.87-0.94c51.65,0,93.67,62.39,93.67,139.07S454.975,442.85,403.325,442.85z"/>
</g>
</svg>