<svg xmlns="http://www.w3.org/2000/svg" viewBox="0 0 48 48"><defs><style>.cls-1{fill:#6fabe6;}.cls-2{fill:#9dcc6b;}.cls-3{fill:#b5e08c;}.cls-4{fill:#82bcf4;}.cls-5{fill:#edb996;}.cls-6{fill:#f6ccaf;}.cls-7{fill:#a87e6b;}.cls-8{fill:#be927c;}.cls-9{fill:#db5669;}.cls-10{fill:#f26674;}.cls-11{fill:#dad7e5;}.cls-12{fill:#edebf2;}</style></defs><title>worldwide product delivery</title><g id="worldwide_product_delivery" data-name="worldwide product delivery"><path class="cls-1" d="M17.67,44A21,21,0,0,1,3,24a3.62,3.62,0,0,1,0-.47c.08.74.23.72,3.8,4.29,7.1,7.1,7.18,6.91,7.18,7.85,0,2.25,0,2.73,0,2.83A1.62,1.62,0,0,0,15.62,40a1.62,1.62,0,0,1,1.61,1.36Z"/><path class="cls-1" d="M45,25a21.06,21.06,0,0,1-2,8H33c-4.27-4.27-5.41-6.1-8.43-6.1-.69,0-3.84.87-6.12-1.86-1.88-2.26-2.59-2.8-2.59-4.16A2.83,2.83,0,0,1,18,18.12c1.29-.32,2.37-.42,3.09-1.68,2.55-4.47,2.8-4.67,2.8-5.54A2.41,2.41,0,0,0,19.8,9.2c-1,1-1.46,1.66-2.3,1.66a1.56,1.56,0,0,1-1.29-2.42,3.51,3.51,0,0,0,0-3.88c-.11-.14,5.68-2.58,12.4-1l-1.7,2.27a1.75,1.75,0,0,0,.16,2.28c1,1,1.51.74,2.91.27A1.75,1.75,0,0,1,32.28,10c0,1.37-1.78,1.71-1.78,4.29,0,2.06.75,2.45,6.2,9.13C38.39,25.48,40.49,25,45,25Z"/><path class="cls-2" d="M33,33V43A21.07,21.07,0,0,1,17.67,44l-.44-2.67A1.62,1.62,0,0,0,15.62,40,1.63,1.63,0,0,1,14,38.51c0-3.11.1-3.4-.49-4C2.63,23.64,3.11,24.29,3,23.53a20.68,20.68,0,0,1,2.12-8.77C6.2,16.1,6.72,16.66,7,17c2-2.2,6.4-7.68,6-10.62,0-.29-.26-.14.93-.79a10.77,10.77,0,0,1,2.32-1,3.51,3.51,0,0,1,0,3.88,1.55,1.55,0,0,0,2.39,2l1.2-1.2a2.41,2.41,0,0,1,4.11,1.7c0,.91-.26,1.09-2.8,5.54-.72,1.26-1.82,1.37-3.09,1.68a2.83,2.83,0,0,0-2.16,2.76c0,1.26.46,1.6,2.59,4.16s5.11,1.86,6.12,1.86C27.55,26.9,28.53,28.53,33,33Z"/><path class="cls-2" d="M45,25c-4.62,0-6.62.45-8.28-1.58L31.48,17a4.33,4.33,0,0,1,.28-5.79,1.74,1.74,0,0,0,0-2.48c-1.59-1.59-2.84,1.16-4.69-.69a1.75,1.75,0,0,1-.16-2.28l1.7-2.27A21,21,0,0,1,45,25Z"/><path class="cls-3" d="M45,25c-4.62,0-6.62.45-8.28-1.58L31.48,17a4.33,4.33,0,0,1,.28-5.79,1.74,1.74,0,0,0,0-2.48c-1.59-1.59-2.84,1.16-4.69-.69a1.75,1.75,0,0,1-.16-2.28l1.7-2.27A21,21,0,0,1,45,25Z"/><path class="cls-4" d="M45,25a21.06,21.06,0,0,1-2,8H33c-4.27-4.27-5.41-6.1-8.43-6.1-.69,0-3.84.87-6.12-1.86-1.88-2.26-2.59-2.8-2.59-4.16A2.83,2.83,0,0,1,18,18.12c1.29-.32,2.37-.42,3.09-1.68,2.55-4.47,2.8-4.67,2.8-5.54A2.41,2.41,0,0,0,19.8,9.2c-1,1-1.46,1.66-2.3,1.66a1.56,1.56,0,0,1-1.29-2.42,3.51,3.51,0,0,0,0-3.88c-.11-.14,5.68-2.58,12.4-1l-1.7,2.27a1.75,1.75,0,0,0,.16,2.28c1,1,1.51.74,2.91.27A1.75,1.75,0,0,1,32.28,10c0,1.37-1.78,1.71-1.78,4.29,0,2.06.75,2.45,6.2,9.13C38.39,25.48,40.49,25,45,25Z"/><path class="cls-3" d="M33,33v1H31v8.62A21,21,0,0,1,14,38.5a.49.49,0,0,1,0-.12c0-3,.13-3.25-.48-3.86l-6.7-6.7a21.1,21.1,0,0,1-.13-11.18L7,17c2-2.2,6.4-7.68,6-10.62a8.08,8.08,0,0,1,3.21-1.87,3.5,3.5,0,0,1,0,3.93,1.55,1.55,0,0,0,2.39,2l1.2-1.2a2.41,2.41,0,0,1,3.79,2.9c-2.49,4.36-2.7,5.3-4.27,5.7-1.4.34-2.76.51-3.32,2.19a2.89,2.89,0,0,0,.52,2.73C18.39,25,20,27.59,23.66,27a5.63,5.63,0,0,1,4.87,1.56Z"/><path class="cls-4" d="M14,38.5A21,21,0,0,1,6.82,27.82l6.7,6.7c.63.63.48,1.1.48,3.86A.49.49,0,0,0,14,38.5Z"/><rect class="cls-5" x="33" y="33" width="14" height="14"/><path class="cls-6" d="M47,33c0,12.64-.1,12,0,12A12,12,0,0,1,35,33Z"/><rect class="cls-7" x="38" y="33" width="4" height="4"/><path class="cls-8" d="M42,33v3a3,3,0,0,1-3-3Z"/><path class="cls-9" d="M13,7c0,2.73-4.22,8-6,10C5.19,15,1,9.74,1,7A6,6,0,0,1,13,7Z"/><path class="cls-10" d="M13,7c0,2.1-2.41,5.55-4.17,7.8C7,12.78,3,7.7,3,5a5.91,5.91,0,0,1,.88-3.12A6,6,0,0,1,13,7Z"/><path class="cls-11" d="M9,7A2,2,0,1,1,6.18,5.18,2,2,0,0,1,9,7Z"/><path class="cls-12" d="M8.82,7.82A2,2,0,0,1,6.18,5.18,2,2,0,0,1,8.82,7.82Z"/><path d="M47,32H44.5C51.75,13.5,31.88-5.25,13.58,4.63A7,7,0,0,0,0,7c0,2.24,2.18,5.55,4,7.9-8,17.55,9.44,36.88,28,29.6V47a1,1,0,0,0,1,1H47a1,1,0,0,0,1-1V33A1,1,0,0,0,47,32Zm-8,2h2v2H39Zm5-10c-3.75,0-5.25.34-6.53-1.21-5.62-6.89-6-6.93-6-8.5,0-2.22,1.78-2.34,1.78-4.29a2.76,2.76,0,0,0-3.62-2.61c-1.35.45-1.35.5-1.88,0s0-1.06,1.23-2.7A20,20,0,0,1,44,24ZM26.83,4.22l-.72,1a2.75,2.75,0,0,0,.25,3.59c2.17,2.16,3.88-.13,4.69.69a.74.74,0,0,1,0,1.06,5.32,5.32,0,0,0-.34,7.13c7.35,9,5.67,8.34,13.19,8.34a19.77,19.77,0,0,1-1.57,6H33.06l-3.82-4.18A6.7,6.7,0,0,0,23.49,26c-3.07.52-4.41-1.75-6.2-3.9A1.89,1.89,0,0,1,17,20.31c.37-1.12,1.25-1.2,2.61-1.54,2-.51,2.32-1.66,4.9-6.19a3.41,3.41,0,0,0-5.37-4.09l-1.2,1.2A.55.55,0,0,1,17,9.31c0-.42,1.42-1.86.61-4.24A19.64,19.64,0,0,1,26.83,4.22ZM7,2a5,5,0,0,1,5,5c0,1.91-2.82,5.88-5,8.47C5.59,13.81,2,9.19,2,7A5,5,0,0,1,7,2ZM4.19,26.6C13.54,36,13,35.3,13,35.67v2.71A2.63,2.63,0,0,0,15.62,41c.62,0,.62.51.78,1.49A20,20,0,0,1,4.19,26.6ZM18.55,43.23l-.33-2a2.62,2.62,0,0,0-2.6-2.2c-1.51,0,.35-3.44-1.39-5.19C3.36,22.94,4.08,23.74,4,23.44a19.79,19.79,0,0,1,1.37-6.77l.87,1a1,1,0,0,0,1.48,0C9.92,15.24,14.13,10,14,6.7a17.38,17.38,0,0,1,1.71-.89,2.49,2.49,0,0,1-.31,2.07,2.57,2.57,0,0,0,.31,3.23,2.66,2.66,0,0,0,3.62,0l1.2-1.2a1.41,1.41,0,0,1,2.4,1c0,.52,0,.37-2.67,5-.5.88-1.31.93-2.47,1.21a3.84,3.84,0,0,0-2.91,3.73c0,1.79,1,2.59,2.82,4.8,2.62,3.14,6.08,2.22,6.89,2.22a4.6,4.6,0,0,1,3.22,1.31L32,33.8v8.53A19.81,19.81,0,0,1,18.55,43.23ZM46,46H34V34h3v3a1,1,0,0,0,1,1h4a1,1,0,0,0,1-1V34h3Z"/><path d="M7,10A3,3,0,1,0,4,7,3,3,0,0,0,7,10ZM7,6A1,1,0,0,1,7,8,1,1,0,0,1,7,6Z"/></g></svg>