<?xml version="1.0" encoding="utf-8"?>
<!-- Generator: Adobe Illustrator 21.0.0, SVG Export Plug-In . SVG Version: 6.00 Build 0)  -->
<svg version="1.1" id="Layer_1" xmlns="http://www.w3.org/2000/svg" xmlns:xlink="http://www.w3.org/1999/xlink" x="0px" y="0px"
	 viewBox="0 0 512 512" style="enable-background:new 0 0 512 512;" xml:space="preserve">
<style type="text/css">
	.st0{fill:#71CCE0;}
	.st1{fill:#DFDFDF;}
	.st2{fill:#4A555F;}
	.st3{fill:#FFD452;}
	.st4{fill:#F58E6F;}
	.st5{fill:#FFFFFF;}
	.st6{fill:none;}
</style>
<g>
	<g>
		<g>
			<g>
				<path class="st2" d="M508.659,391.187c-6.287-13.922-22.251-20.183-36.348-14.247l-127.764,53.776
					c-19.88,8.367-37.191,11.917-53.521,10.636c0.432-0.241,0.858-0.495,1.279-0.761c7.984-5.043,12.75-13.685,12.75-23.115
					c0-10.229-5.645-19.523-14.731-24.255l-91.759-47.777h-86.944V449h12.33l123.413,53.249c15.084,6.508,31.133,9.751,47.167,9.75
					c17.8,0,35.582-3.998,51.988-11.965l148.88-72.289C509.089,421.099,514.913,405.041,508.659,391.187z M492.545,421.865
					l-148.88,72.289c-29.469,14.312-63.626,15.072-93.706,2.091l-124.035-53.516l-0.622-0.267h-7.141v-90.479h78.805l90.341,47.038
					c6.915,3.6,11.211,10.672,11.211,18.455c0,7.174-3.627,13.749-9.704,17.587c-5.213,3.295-11.479,4.099-17.258,2.327
					c-0.385-0.129-0.773-0.259-1.158-0.393c-0.581-0.217-1.158-0.46-1.726-0.73l-77.885-37.044l-2.81,5.904l60.63,28.837
					c6.06,3.57,12.002,6.354,17.824,8.47c1.75,0.784,3.548,1.376,5.375,1.778c29.232,8.726,55.019,1.057,75.28-7.471l127.764-53.776
					c10.806-4.544,23.037,0.249,27.851,10.912C507.487,404.481,503.025,416.775,492.545,421.865z"/>
			</g>
		</g>
	</g>
	<g>
		<g>
			<path class="st1" d="M495.178,397.253c-2.205-4.881-6.936-7.762-11.951-7.762c-1.721,0-3.474,0.339-5.17,1.053L350.293,444.32
				c-21.695,9.131-39.757,12.54-54.853,12.54c-23.718,0-40.11-8.414-51.75-16.261l-59.264-28.046l9.913-20.756l77.885,37.044
				c1.764,0.84,3.618,1.256,5.458,1.256c2.32,0,4.619-0.661,6.702-1.975c3.739-2.354,5.883-6.235,5.883-10.647
				c0-4.707-2.598-8.985-6.781-11.163l-88.545-46.105h-68.121l0,74.735l-0.621-0.031l0.621,0.268l126.412,53.516
				c13.207,5.698,27.261,8.539,41.298,8.539c15.589,0,31.154-3.5,45.521-10.476l148.88-72.29
				C495.378,411.338,498.121,403.776,495.178,397.253z"/>
		</g>
	</g>
	<g>
		<g>
			<g>
				<path class="st2" d="M0.833,304.256V490.93h117.328V304.256H0.833z M111.623,484.392H7.372V310.794h104.25V484.392z"/>
			</g>
		</g>
	</g>
	<g>
		<g>
			<rect x="15.622" y="319.021" class="st3" width="87.75" height="157.144"/>
		</g>
	</g>
	<g>
		<g>
			<g>
				<path class="st2" d="M46.825,330.671c-10.896,0-19.759,8.849-19.759,19.726s8.863,19.725,19.759,19.725
					c10.896,0,19.759-8.848,19.759-19.725S57.721,330.671,46.825,330.671z M46.825,363.583c-7.29,0-13.22-5.915-13.22-13.186
					s5.93-13.187,13.22-13.187s13.22,5.916,13.22,13.187S54.115,363.583,46.825,363.583z"/>
			</g>
		</g>
	</g>
	<g>
		<g>
			<path class="st2" d="M251.606,428.132l-3.078,5.762c6.049,3.595,12.224,6.53,18.354,8.724l2.448-6.058L251.606,428.132z"/>
		</g>
	</g>
	<g>
		<g>
			<path class="st2" d="M251.606,428.132l-3.078,5.762c6.049,3.595,12.224,6.53,18.354,8.724l2.448-6.058L251.606,428.132z"/>
		</g>
	</g>
	<g>
		<g>
			<path class="st2" d="M269.087,436.461l-2.42,6.071c1.567,0.688,3.22,1.243,4.919,1.647l1.705-6.309
				C271.903,437.45,270.496,436.967,269.087,436.461z"/>
		</g>
	</g>
	<g>
		<g>
			<path class="st2" d="M269.087,436.461l-2.42,6.071c1.567,0.688,3.22,1.243,4.919,1.647l1.705-6.309
				C271.903,437.45,270.496,436.967,269.087,436.461z"/>
		</g>
	</g>
	<g>
		<g>
			<g>
				<path class="st2" d="M331.27,275.51h-99.883l-92.329,76.481h57.899l90.356,47.038c6.913,3.588,11.206,10.659,11.206,18.457
					c0,11.489-9.357,20.836-20.859,20.836c-1.543,0-3.054-0.164-4.489-0.487l-1.671,6.317c8.712,2.651,17.424,3.991,26.436,3.991
					c15.084,0,31.01-3.758,49.149-11.405l105.772-44.508l6.6-3.826L331.27,275.51z M344.546,430.711
					c-20.057,8.458-37.159,11.922-53.401,10.6c8.301-4.709,13.914-13.624,13.914-23.825c0-10.248-5.645-19.544-14.729-24.259
					l-91.771-47.775h-41.356l76.544-63.404h95.056L448.117,387.13L344.546,430.711z"/>
			</g>
		</g>
	</g>
	<g>
		<g>
			<path class="st4" d="M325.921,289.674h-89.428l-58.124,48.146h22.055l93.417,48.63c11.624,6.034,18.846,17.925,18.846,31.032
				c0,5.642-1.341,10.975-3.725,15.698c9.97-1.321,20.584-4.427,32.627-9.505l92.361-38.863L325.921,289.674z"/>
		</g>
	</g>
	<g>
		<g>
			<rect x="276.739" y="129.303" class="st2" width="6.539" height="149.476"/>
		</g>
	</g>
	<g>
		<g>
			
				<rect x="269.186" y="214.318" transform="matrix(0.7126 -0.7016 0.7016 0.7126 -64.466 277.8162)" class="st2" width="75.303" height="6.54"/>
		</g>
	</g>
	<g>
		<g>
			
				<rect x="249.91" y="144.879" transform="matrix(0.7017 -0.7125 0.7125 0.7017 -54.523 234.8358)" class="st2" width="6.54" height="75.3"/>
		</g>
	</g>
	<g>
		<g>
			<g>
				<path class="st2" d="M359.579,161.029c-4.225,1.637-8.48,3.199-12.733,4.761c-4.276,1.571-8.552,3.142-12.798,4.786
					c-1.46,0.565-3.04,1.123-4.678,1.702c-6.745,2.384-14.393,5.086-19.335,10.028c-4.342,4.34-6.732,10.111-6.732,16.249
					c0,6.138,2.39,11.91,6.732,16.25c4.34,4.341,10.11,6.731,16.249,6.731c6.138,0,11.909-2.39,16.249-6.73
					c2.09-2.09,3.746-4.545,4.915-7.295l19.035-49.154L359.579,161.029z M341.562,204.612l-0.153,0.389
					c-0.839,1.955-2.016,3.697-3.499,5.18c-3.105,3.105-7.235,4.816-11.626,4.816c-4.391,0-8.52-1.71-11.626-4.816
					s-4.817-7.235-4.817-11.627c0-4.391,1.711-8.52,4.817-11.626c3.893-3.894,10.8-6.333,16.892-8.486
					c1.701-0.601,3.342-1.182,4.857-1.769c4.214-1.63,8.454-3.188,12.694-4.746c1.99-0.73,3.98-1.461,5.966-2.2L341.562,204.612z"/>
			</g>
		</g>
	</g>
	<g>
		<g>
			<g>
				<path class="st2" d="M244.886,142.694c-4.94-4.942-12.59-7.646-19.339-10.03c-1.635-0.578-3.214-1.136-4.674-1.7
					c-4.246-1.644-8.522-3.215-12.798-4.786c-4.253-1.562-8.507-3.125-12.733-4.761l-6.903-2.672l18.818,48.598l0.217,0.555
					c1.168,2.746,2.82,5.2,4.915,7.294c4.34,4.341,10.11,6.731,16.249,6.731c6.139,0,11.909-2.39,16.249-6.731
					c4.342-4.34,6.732-10.111,6.732-16.25C251.619,152.805,249.228,147.034,244.886,142.694z M240.263,170.569
					c-3.105,3.105-7.235,4.816-11.626,4.816c-4.391,0-8.52-1.71-11.626-4.816c-1.496-1.498-2.682-3.259-3.523-5.232l-3.008,1.28
					l2.984-1.348l-13.612-35.154c1.988,0.739,3.976,1.47,5.966,2.2c4.24,1.558,8.48,3.116,12.694,4.747
					c1.516,0.586,3.154,1.167,4.855,1.767c6.094,2.154,13.001,4.594,16.894,8.488c3.105,3.105,4.817,7.235,4.817,11.626
					C245.08,163.335,243.369,167.464,240.263,170.569z"/>
			</g>
		</g>
	</g>
	<g>
		<g>
			<g>
				<path class="st2" d="M280.008,0c-36.55,0-66.285,29.736-66.285,66.286c0,36.55,29.735,66.286,66.285,66.286
					c36.55,0,66.287-29.736,66.287-66.286C346.295,29.736,316.558,0,280.008,0z M280.008,126.033
					c-32.945,0-59.746-26.803-59.746-59.747s26.802-59.747,59.746-59.747c32.944,0,59.748,26.803,59.748,59.747
					S312.953,126.033,280.008,126.033z"/>
			</g>
		</g>
	</g>
	<g>
		<g>
			<circle class="st3" cx="280.009" cy="66.286" r="47.547"/>
		</g>
	</g>
	<g>
		<g>
			<g>
				<path class="st2" d="M236.734,54.77l-6.322-1.671c-0.594,2.244-1.039,4.548-1.322,6.847l6.488,0.802
					C235.828,58.742,236.217,56.73,236.734,54.77z M235.244,66.831l-6.539,0.077c0.028,2.327,0.213,4.667,0.551,6.952l6.466-0.958
					C235.429,70.908,235.268,68.866,235.244,66.831z M237.026,78.848l-6.279,1.826c0.647,2.226,1.458,4.431,2.409,6.554l5.968-2.673
					C238.294,82.705,237.59,80.785,237.026,78.848z M241.425,43.565l-5.632-3.32c-1.181,2.004-2.235,4.103-3.131,6.238l6.032,2.529
					C239.474,47.148,240.393,45.316,241.425,43.565z M241.979,89.925l-5.547,3.459c1.226,1.967,2.597,3.87,4.078,5.653l5.032-4.174
					C244.25,93.304,243.052,91.643,241.979,89.925z M320.664,47.512l5.934-2.744c-0.971-2.103-2.099-4.161-3.352-6.115l-5.504,3.527
					C318.834,43.885,319.817,45.678,320.664,47.512z M245.321,104.092c1.707,1.567,3.54,3.032,5.445,4.357l3.733-5.368
					c-1.667-1.158-3.267-2.439-4.759-3.808L245.321,104.092z M314.121,37.288l4.981-4.238c-1.503-1.766-3.142-3.446-4.872-4.994
					l-4.359,4.872C311.38,34.279,312.81,35.746,314.121,37.288z M270.13,22.61l-1.439-6.379c-2.267,0.512-4.517,1.182-6.686,1.995
					l2.294,6.124C266.19,23.641,268.153,23.056,270.13,22.61z M258.764,26.868l-3.103-5.755c-2.035,1.097-4.019,2.351-5.9,3.725
					l3.861,5.279C255.26,28.917,256.991,27.823,258.764,26.868z M248.96,34.036l-4.534-4.715c-1.671,1.608-3.248,3.347-4.687,5.169
					l5.13,4.053C246.125,36.955,247.5,35.438,248.96,34.036z M324.206,59.122l6.458-1.03c-0.364-2.284-0.894-4.572-1.575-6.802
					l-6.253,1.907C323.427,55.14,323.889,57.134,324.206,59.122z M314.811,94.452l5.083,4.114c1.467-1.81,2.816-3.73,4.014-5.707
					l-5.594-3.388C317.271,91.196,316.092,92.871,314.811,94.452z M305.957,102.772l3.793,5.328
					c1.888-1.345,3.703-2.833,5.394-4.423l-4.478-4.763C309.188,100.301,307.604,101.6,305.957,102.772z M321.111,84.063
					l6.002,2.597c0.922-2.133,1.705-4.347,2.328-6.583l-6.3-1.754C322.599,80.272,321.916,82.204,321.111,84.063z M331.302,65.039
					l-6.539,0.143l0.015,1.105c0,2.036-0.138,4.08-0.409,6.076l6.479,0.881c0.311-2.287,0.468-4.627,0.468-6.975L331.302,65.039z
					 M302.7,20.253l-2.895,5.864c1.809,0.892,3.58,1.922,5.266,3.062l3.661-5.417C306.802,22.458,304.773,21.276,302.7,20.253z
					 M275.587,15.165l0.558,6.515c2.014-0.174,4.072-0.208,6.092-0.111l0.323-6.53C280.251,14.924,277.888,14.969,275.587,15.165z
					 M269.919,116.602c2.269,0.453,4.595,0.756,6.917,0.896l0.396-6.526c-2.024-0.124-4.055-0.386-6.032-0.781L269.919,116.602z
					 M256.755,112.032c2.073,1.057,4.236,1.977,6.424,2.737l2.146-6.177c-1.909-0.662-3.793-1.465-5.602-2.386L256.755,112.032z
					 M295.203,108.415l2.222,6.149c2.182-0.788,4.329-1.734,6.385-2.812l-3.035-5.792
					C298.981,106.901,297.106,107.727,295.203,108.415z M283.329,110.935l0.477,6.521c2.314-0.169,4.638-0.499,6.907-0.98
					l-1.358-6.396C287.375,110.5,285.349,110.788,283.329,110.935z M289.482,15.851l-1.2,6.428c1.986,0.37,3.967,0.882,5.892,1.523
					l2.065-6.205C294.033,16.863,291.76,16.275,289.482,15.851z"/>
			</g>
		</g>
	</g>
	<g>
		<g>
			<path class="st2" d="M295.431,54.899v-0.247c0-8.503-6.92-15.422-15.423-15.422c-8.503,0-15.421,6.918-15.421,15.422v0.907
				c0,7.967,6.483,14.449,14.45,14.449h1.943c4.363,0,7.912,3.549,7.912,7.913c0,4.899-3.985,8.883-8.884,8.883
				c-4.898,0-8.882-3.985-8.882-8.883h-6.539c0,8.503,6.918,15.422,15.421,15.422c8.503,0,15.423-6.919,15.423-15.422
				c0-7.968-6.483-14.451-14.45-14.451h-1.943c-4.363,0-7.911-3.548-7.911-7.91v-0.907c0-4.899,3.984-8.883,8.882-8.883
				c4.9,0,8.884,3.984,8.884,8.883v0.247H295.431z"/>
		</g>
	</g>
	<g>
		<g>
			<rect x="276.739" y="31.493" class="st2" width="6.539" height="11.006"/>
		</g>
	</g>
	<g>
		<g>
			<rect x="276.739" y="90.073" class="st2" width="6.539" height="11.006"/>
		</g>
	</g>
</g>
</svg>
