<svg xmlns="http://www.w3.org/2000/svg" viewBox="0 0 48 48"><defs><style>.cls-1{fill:#edb996;}.cls-2{fill:#f6ccaf;}.cls-3{fill:#ffdec7;}.cls-4{fill:#9dcc6b;}.cls-5{fill:#b5e08c;}</style></defs><title>Product growth</title><g id="Product_growth" data-name="Product growth"><polygon class="cls-1" points="17 23 17 47 7 47 7 29 11 29 17 23"/><path class="cls-2" d="M17,25V45a8,8,0,0,1-5.66-2.34C8.38,39.68,9,36.51,9,31h2Z"/><polygon class="cls-1" points="41 29 41 47 17 47 17 23 23 29 41 29"/><path class="cls-2" d="M41,31V45H39A19,19,0,0,1,20.12,28.12L23,31Z"/><polygon class="cls-2" points="17 23 11 29 1 29 7 23 17 23"/><path class="cls-3" d="M17,23l-4,4H10.66A2.34,2.34,0,0,1,9,23Z"/><polygon class="cls-2" points="47 29 23 29 17 23 41 23 47 29"/><path class="cls-3" d="M45,27H29.66A13.65,13.65,0,0,1,20,23c-.1-.1.35,0,21,0Z"/><path class="cls-4" d="M23,15H20v8H12V15H9c6-6.85,4.48-5.11,7-8Z"/><path class="cls-4" d="M39,9H36V23H28V9H25c6-6.85,4.48-5.11,7-8Z"/><path class="cls-5" d="M39,9H36V21a6,6,0,0,1-6-6V3.29L32,1Z"/><path class="cls-5" d="M23,15H20v6a6,6,0,0,1-6-6V9.29L16,7Z"/><path d="M47.71,28.29c-6.56-6.55-6.06-6.1-6.33-6.21S41.3,22,37,22V10h2a1,1,0,0,0,.75-1.66l-7-8a1,1,0,0,0-1.5,0c-7.39,8.44-7.53,8.25-7.16,9.07S24.86,10,27,10V22H21V16h2a1,1,0,0,0,.75-1.66l-7-8a1,1,0,0,0-1.5,0c-7.39,8.44-7.53,8.25-7.16,9.07S8.86,16,11,16v6c-4.33,0-4.32-.1-4.71.29C-.17,28.76-.27,28.54.08,29.38S.83,30,6,30V47a1,1,0,0,0,1,1H41a1,1,0,0,0,1-1V30c5.27,0,5.58.2,5.92-.62A1,1,0,0,0,47.71,28.29ZM28,8h-.8L32,2.52,36.8,8H36a1,1,0,0,0-1,1V22H29V9A1,1,0,0,0,28,8ZM12,14h-.8L16,8.52,20.8,14H20a1,1,0,0,0-1,1v7H13V15A1,1,0,0,0,12,14ZM7.41,24h7.18l-4,4H3.41ZM8,30c3.26,0,3.32.09,3.71-.29L16,25.41V46H8ZM40,46H18V25.41C22.61,30,22.43,30,23,30H40ZM23.41,28l-4-4H40.59l4,4Z"/><path d="M43,18V14a1,1,0,0,0-2,0v4A1,1,0,0,0,43,18Z"/><path d="M23,6V2a1,1,0,0,0-2,0V6A1,1,0,0,0,23,6Z"/><path d="M6,20V16a1,1,0,0,0-2,0v4A1,1,0,0,0,6,20Z"/></g></svg>