<?xml version="1.0" encoding="utf-8"?>
<!-- Generator: Adobe Illustrator 21.0.0, SVG Export Plug-In . SVG Version: 6.00 Build 0)  -->
<svg version="1.1" id="Layer_1" xmlns="http://www.w3.org/2000/svg" xmlns:xlink="http://www.w3.org/1999/xlink" x="0px" y="0px"
	 viewBox="0 0 512 512" style="enable-background:new 0 0 512 512;" xml:space="preserve">
<style type="text/css">
	.st0{fill:#71CCE0;}
	.st1{fill:#DFDFDF;}
	.st2{fill:#4A555F;}
	.st3{fill:#FFD452;}
	.st4{fill:#F58E6F;}
	.st5{fill:#FFFFFF;}
	.st6{fill:none;}
</style>
<g>
	<g>
		<g>
			<g>
				<path class="st2" d="M140.958,29.531c-8.074-8.073-18.807-12.518-30.225-12.518C87.164,17.015,67.988,36.191,67.988,59.76
					c0,11.417,4.446,22.152,12.52,30.224c8.074,8.073,18.807,12.519,30.225,12.518c23.569-0.001,42.745-19.178,42.745-42.747
					C153.478,48.338,149.033,37.604,140.958,29.531z M110.733,96.306c-9.762,0-18.942-3.801-25.844-10.703
					c-6.902-6.903-10.704-16.08-10.704-25.843c0-20.152,16.396-36.549,36.549-36.55c9.762,0,18.942,3.801,25.844,10.703
					c6.902,6.902,10.704,16.08,10.704,25.842C147.282,79.908,130.885,96.304,110.733,96.306z"/>
			</g>
		</g>
	</g>
	<g>
		<g>
			<path class="st3" d="M131.465,39.025c-5.537-5.537-12.899-8.587-20.73-8.586C94.567,30.44,81.414,43.593,81.414,59.76
				c0,7.832,3.05,15.194,8.587,20.731c5.537,5.537,12.9,8.587,20.731,8.586c16.167-0.001,29.319-13.154,29.319-29.321
				C140.052,51.924,137.003,44.562,131.465,39.025z"/>
		</g>
	</g>
	<g>
		<g>
			<g>
				<path class="st2" d="M235.097,28.142v132.663h18.113c2.14,0,4.22,0.398,6.192,1.188c3.754,1.483,6.848,4.283,8.726,7.897
					c0.884,1.679,1.46,3.487,1.725,5.428c0.113,0.749,0.169,1.515,0.169,2.341c0,2.235-0.444,4.412-1.325,6.477
					c-1.634,3.865-4.625,6.962-8.425,8.722c-2.219,1.029-4.595,1.551-7.062,1.551h-18.113v26.706h237.957V28.142H235.097z
					 M466.858,214.92H241.294v-14.314h11.917c3.375,0,6.626-0.716,9.666-2.125c5.202-2.408,9.295-6.646,11.525-11.923
					c1.206-2.829,1.817-5.823,1.817-8.898c0-1.143-0.079-2.215-0.234-3.225c-0.353-2.609-1.152-5.108-2.366-7.415
					c-2.556-4.925-6.795-8.757-11.925-10.785c-2.699-1.08-5.553-1.627-8.484-1.627h-11.917V34.338h225.565V214.92z"/>
			</g>
		</g>
	</g>
	<g>
		<g>
			<path class="st4" d="M248.522,41.567v116.14h4.688c2.582,0,5.06,0.496,7.332,1.405V53.609h187.067v142.061H261.575
				c-2.54,1.178-5.37,1.839-8.365,1.839h-4.688v10.183H459.63V41.567H248.522z"/>
		</g>
	</g>
	<g>
		<g>
			<g>
				<path class="st2" d="M257.444,50.51v110.708l1.958,0.775c3.754,1.483,6.848,4.283,8.726,7.897
					c0.884,1.679,1.46,3.487,1.725,5.428c0.113,0.749,0.169,1.515,0.169,2.341c0,2.235-0.444,4.412-1.325,6.477
					c-1.634,3.865-4.625,6.962-8.423,8.722l-12.764,5.909h203.198V50.51H257.444z M444.512,192.571H270.684
					c1.529-1.785,2.785-3.808,3.717-6.014c1.206-2.829,1.817-5.823,1.817-8.898c0-1.143-0.079-2.215-0.234-3.225
					c-0.353-2.609-1.152-5.108-2.366-7.415c-2.223-4.284-5.72-7.741-9.978-9.906V56.707h180.871V192.571z"/>
			</g>
		</g>
	</g>
	<g>
		<g>
			<path class="st1" d="M270.87,63.936v104.512c1.033,1.963,1.735,4.111,2.045,6.403c0.144,0.95,0.206,1.879,0.206,2.809
				c0,2.706-0.558,5.308-1.57,7.683h165.731V63.936H270.87z"/>
		</g>
	</g>
	<g>
		<g>
			<g>
				<path class="st2" d="M317.485,0v34.338h66.972V0H317.485z M378.26,28.142h-54.579V6.196h54.579V28.142z"/>
			</g>
		</g>
	</g>
	<g>
		<g>
			<rect x="330.91" y="13.426" class="st1" width="40.121" height="7.488"/>
		</g>
	</g>
	<g>
		<g>
			<polygon class="st2" points="285.31,214.926 265.234,266.772 271.011,269.01 289.553,221.122 326.316,221.122 309.306,266.81 
				315.111,268.972 335.235,214.926 			"/>
		</g>
	</g>
	<g>
		<g>
			<polygon class="st1" points="294.509,228.351 279.624,267.891 301.464,267.891 315.911,228.351 			"/>
		</g>
	</g>
	<g>
		<g>
			<polygon class="st2" points="417.306,214.926 367.38,214.926 387.504,268.972 393.309,266.81 376.3,221.122 413.062,221.122 
				431.607,269.01 437.384,266.772 			"/>
		</g>
	</g>
	<g>
		<g>
			<polygon class="st1" points="408.108,228.351 386.705,228.351 401.729,267.891 423.569,267.891 			"/>
		</g>
	</g>
	<g>
		<g>
			<path class="st1" d="M262.692,176.28c-0.66-4.702-4.736-8.247-9.484-8.247h-21.505c-15.275,0-29.108-8.437-36.1-22.02
				l-7.316-14.214c-7.006-13.613-20.869-22.069-36.179-22.069H89.534c-30.044,0-54.486,24.442-54.486,54.486v105.966h25.564v-85.389
				h10.327v85.389h79.589V147.379h18.106l2.951,5.311l13.468,24.237c3.516,6.327,10.197,10.258,17.435,10.258h50.72
				c2.814,0,5.381-1.17,7.227-3.293C262.281,181.769,263.081,179.065,262.692,176.28z"/>
		</g>
	</g>
	<g>
		<g>
			<polygon class="st4" points="98.373,99.404 106.047,117.522 116.26,117.522 123.794,99.404 			"/>
		</g>
	</g>
	<g>
		<g>
			<path class="st4" d="M116.269,117.527h-10.224L94.169,179.76l16.916,23.029l16.214-22.802
				C123.828,158.547,116.269,117.527,116.269,117.527z"/>
		</g>
	</g>
	<g>
		<g>
			<g>
				<path class="st2" d="M93.696,96.306l10.301,24.314h14.331l10.109-24.314H93.696z M114.193,114.424h-6.094l-5.049-11.922h16.1
					L114.193,114.424z"/>
			</g>
		</g>
	</g>
	<g>
		<g>
			<g>
				<path class="st2" d="M130.357,179.492c-3.437-21.228-10.967-62.115-11.041-62.526l-0.468-2.536h-15.366l-12.609,66.076
					l20.251,27.573l19.436-27.332L130.357,179.492z M111.044,197.5l-13.579-18.486l11.144-58.389h5.077
					c1.662,9.071,7.358,40.297,10.351,58.603L111.044,197.5z"/>
			</g>
		</g>
	</g>
	<g>
		<g>
			<rect x="57.514" y="184.793" class="st2" width="6.196" height="85.389"/>
		</g>
	</g>
	<g>
		<g>
			<path class="st2" d="M275.987,174.414c-1.583-11.292-11.376-19.807-22.778-19.807h-21.506c-10.224,0-19.483-5.648-24.162-14.738
				l-7.316-14.214c-9.319-18.104-27.756-29.35-48.116-29.35H89.534c-37.446,0-67.911,30.465-67.911,67.911v105.966h6.196V164.217
				c0-34.029,27.686-61.715,61.715-61.715h62.574c18.028,0,34.354,9.959,42.606,25.99l7.316,14.214
				c5.747,11.164,17.116,18.099,29.673,18.099h21.506c8.33,0,15.487,6.221,16.642,14.471c0.676,4.818-0.766,9.688-3.959,13.36
				c-3.193,3.673-7.816,5.779-12.683,5.779h-50.72c-9.861,0-18.964-5.355-23.755-13.975l-14.353-25.831h-6.624v115.575h6.196
				V166.596l9.363,16.852c5.886,10.586,17.062,17.162,29.172,17.162h50.72c6.66,0,12.988-2.883,17.359-7.909
				C274.936,187.675,276.913,181.01,275.987,174.414z"/>
		</g>
	</g>
	<g>
		<g>
			<g>
				<path class="st2" d="M90.341,322.95c-22.149,0-40.167,18.019-40.167,40.168c0,22.148,18.018,40.167,40.167,40.167
					c10.729,0,20.818-4.178,28.404-11.764c7.586-7.587,11.765-17.674,11.765-28.403C130.51,340.969,112.49,322.95,90.341,322.95z
					 M114.364,387.139c-6.418,6.416-14.948,9.95-24.023,9.95c-18.732,0-33.971-15.239-33.971-33.971s15.239-33.971,33.971-33.971
					s33.973,15.24,33.973,33.971C124.314,372.192,120.78,380.722,114.364,387.139z"/>
			</g>
		</g>
	</g>
	<g>
		<g>
			<path class="st3" d="M90.342,336.795c-14.515,0-26.323,11.808-26.323,26.322s11.808,26.322,26.323,26.322
				c14.515,0,26.322-11.808,26.322-26.322S104.857,336.795,90.342,336.795z"/>
		</g>
	</g>
	<g>
		<g>
			<path class="st2" d="M116.901,397.089H59.963c-26.163,0-47.449,21.286-47.449,47.449V512h6.196v-67.462
				c0-22.747,18.506-41.253,41.252-41.253h56.939c22.746,0,41.252,18.506,41.252,41.253V512h6.196v-67.462
				C164.35,418.374,143.064,397.089,116.901,397.089z"/>
		</g>
	</g>
	<g>
		<g>
			<path class="st1" d="M116.901,410.934H59.964c-18.529,0-33.604,15.075-33.604,33.604V512h124.145v-67.462
				C150.504,426.009,135.429,410.934,116.901,410.934z"/>
		</g>
	</g>
	<g>
		<g>
			<rect x="34.669" y="469.479" class="st2" width="6.196" height="42.521"/>
		</g>
	</g>
	<g>
		<g>
			<rect x="135.979" y="469.479" class="st2" width="6.196" height="42.521"/>
		</g>
	</g>
	<g>
		<g>
			<path class="st0" d="M90.342,326.048c-16.297,0-30.106,10.531-35.074,25.148h70.148
				C120.448,336.58,106.639,326.048,90.342,326.048z"/>
		</g>
	</g>
	<g>
		<g>
			<g>
				<path class="st2" d="M128.348,350.199c-5.539-16.299-20.814-27.249-38.007-27.249c-17.191,0-32.466,10.95-38.007,27.249
					l-1.394,4.096h78.799L128.348,350.199z M59.896,348.098c5.66-11.493,17.399-18.952,30.445-18.952
					c13.048,0,24.787,7.458,30.445,18.952H59.896z"/>
			</g>
		</g>
	</g>
	<g>
		<g>
			<rect x="125.415" y="348.098" class="st2" width="25.09" height="6.196"/>
		</g>
	</g>
	<g>
		<g>
			<g>
				<path class="st2" d="M257.91,322.95c-22.149,0-40.167,18.019-40.167,40.168c0,22.148,18.018,40.167,40.167,40.167
					c10.729,0,20.816-4.178,28.402-11.764c7.588-7.587,11.765-17.674,11.765-28.403C298.077,340.969,280.059,322.95,257.91,322.95z
					 M281.931,387.139c-6.416,6.416-14.946,9.95-24.021,9.95c-18.732,0-33.971-15.239-33.971-33.971s15.239-33.971,33.971-33.971
					s33.971,15.24,33.971,33.971C291.881,372.192,288.347,380.723,281.931,387.139z"/>
			</g>
		</g>
	</g>
	<g>
		<g>
			<path class="st3" d="M257.911,336.795c-14.515,0-26.324,11.808-26.324,26.322s11.809,26.322,26.324,26.322
				c14.515,0,26.322-11.808,26.322-26.322S272.426,336.795,257.911,336.795z"/>
		</g>
	</g>
	<g>
		<g>
			<path class="st2" d="M284.47,397.089h-56.939c-26.163,0-47.449,21.286-47.449,47.449V512h6.196v-67.462
				c0-22.747,18.506-41.253,41.252-41.253h56.939c22.746,0,41.252,18.506,41.252,41.253V512h6.196v-67.462
				C331.919,418.374,310.633,397.089,284.47,397.089z"/>
		</g>
	</g>
	<g>
		<g>
			<path class="st1" d="M284.47,410.934h-56.938c-18.528,0-33.603,15.075-33.603,33.604V512h124.145v-67.462
				C318.073,426.009,302.998,410.934,284.47,410.934z"/>
		</g>
	</g>
	<g>
		<g>
			<rect x="202.236" y="469.479" class="st2" width="6.196" height="42.521"/>
		</g>
	</g>
	<g>
		<g>
			<rect x="303.547" y="469.479" class="st2" width="6.196" height="42.521"/>
		</g>
	</g>
	<g>
		<g>
			<path class="st0" d="M257.891,326.048c-16.297,0-30.106,10.531-35.074,25.148h70.148
				C287.997,336.58,274.188,326.048,257.891,326.048z"/>
		</g>
	</g>
	<g>
		<g>
			<g>
				<path class="st2" d="M295.899,350.199c-5.541-16.298-20.816-27.249-38.007-27.249c-17.193,0-32.468,10.95-38.007,27.249
					l-1.392,4.095h78.799L295.899,350.199z M227.447,348.098c5.658-11.493,17.397-18.952,30.445-18.952
					c13.046,0,24.785,7.458,30.445,18.952H227.447z"/>
			</g>
		</g>
	</g>
	<g>
		<g>
			<rect x="292.966" y="348.098" class="st2" width="25.088" height="6.196"/>
		</g>
	</g>
	<g>
		<g>
			<g>
				<path class="st2" d="M425.479,322.95c-22.149,0-40.167,18.019-40.167,40.168c0,22.148,18.018,40.167,40.167,40.167
					c10.729,0,20.816-4.178,28.402-11.764c7.588-7.587,11.765-17.674,11.765-28.403C465.646,340.969,447.628,322.95,425.479,322.95z
					 M449.5,387.139c-6.416,6.416-14.946,9.95-24.021,9.95c-18.732,0-33.971-15.239-33.971-33.971s15.239-33.971,33.971-33.971
					s33.971,15.24,33.971,33.971C459.45,372.192,455.916,380.723,449.5,387.139z"/>
			</g>
		</g>
	</g>
	<g>
		<g>
			<path class="st3" d="M425.48,336.795c-14.515,0-26.324,11.808-26.324,26.322s11.809,26.322,26.324,26.322
				c14.515,0,26.322-11.808,26.322-26.322S439.994,336.795,425.48,336.795z"/>
		</g>
	</g>
	<g>
		<g>
			<path class="st2" d="M452.037,397.089h-56.937c-26.163,0-47.449,21.286-47.449,47.449V512h6.196v-67.462
				c0-22.747,18.506-41.253,41.252-41.253h56.937c22.746,0,41.252,18.506,41.252,41.253V512h6.197v-67.462
				C499.486,418.374,478.2,397.089,452.037,397.089z"/>
		</g>
	</g>
	<g>
		<g>
			<path class="st1" d="M452.039,410.934H395.1c-18.528,0-33.604,15.075-33.604,33.604V512h124.145v-67.462
				C485.642,426.009,470.567,410.934,452.039,410.934z"/>
		</g>
	</g>
	<g>
		<g>
			<rect x="369.805" y="469.479" class="st2" width="6.196" height="42.521"/>
		</g>
	</g>
	<g>
		<g>
			<rect x="471.115" y="469.479" class="st2" width="6.196" height="42.521"/>
		</g>
	</g>
	<g>
		<g>
			<path class="st0" d="M425.459,326.048c-16.297,0-30.106,10.531-35.074,25.148h70.148
				C455.565,336.58,441.756,326.048,425.459,326.048z"/>
		</g>
	</g>
	<g>
		<g>
			<g>
				<path class="st2" d="M463.466,350.199c-5.539-16.299-20.814-27.249-38.007-27.249c-17.191,0-32.466,10.95-38.007,27.249
					l-1.394,4.096h78.799L463.466,350.199z M395.014,348.098c5.66-11.493,17.399-18.952,30.445-18.952
					c13.048,0,24.787,7.458,30.445,18.952H395.014z"/>
			</g>
		</g>
	</g>
	<g>
		<g>
			<rect x="460.533" y="348.098" class="st2" width="25.088" height="6.196"/>
		</g>
	</g>
	<g>
		<g>
			
				<rect x="257.793" y="129.214" transform="matrix(0.7355 -0.6775 0.6775 0.7355 -13.7057 237.8305)" class="st0" width="79.919" height="14.51"/>
		</g>
	</g>
	<g>
		<g>
			<g>
				<path class="st2" d="M322.407,99.684l-63.339,58.345l14.032,15.226l63.339-58.346L322.407,99.684z M267.826,158.387
					l54.222-49.949l5.634,6.113L273.459,164.5L267.826,158.387z"/>
			</g>
		</g>
	</g>
	<g>
		<g>
			<rect x="348.503" y="94.053" class="st2" width="65.876" height="6.196"/>
		</g>
	</g>
	<g>
		<g>
			<rect x="348.503" y="121.531" class="st2" width="65.876" height="6.196"/>
		</g>
	</g>
	<g>
		<g>
			<rect x="323.55" y="149.008" class="st2" width="90.829" height="6.196"/>
		</g>
	</g>
</g>
</svg>
